<svg width="32" height="32" viewBox="0 0 32 32" fill="none" xmlns="http://www.w3.org/2000/svg">
<g clip-path="url(#clip0_150_553)">
<g clip-path="url(#clip1_150_553)">
<path d="M16 32.5C24.8366 32.5 32 25.3366 32 16.5C32 7.66344 24.8366 0.5 16 0.5C7.16344 0.5 0 7.66344 0 16.5C0 25.3366 7.16344 32.5 16 32.5Z" fill="#202020"/>
<path d="M12.1666 11.46L21.5466 11.48V20.84L19.8066 20.9L19.8666 14.88C19.9066 14.4667 19.9666 14.1 20.0466 13.78C19.8733 14.0467 19.7 14.3133 19.5266 14.58C19.3666 14.8333 19.2133 15.0333 19.0666 15.18L11.5466 22.7L10.3066 21.46L17.8266 13.94C17.9866 13.7933 18.1866 13.64 18.4266 13.48C18.68 13.32 18.9466 13.1533 19.2266 12.98C19.0666 13.02 18.9 13.06 18.7266 13.1C18.5533 13.1267 18.36 13.14 18.1466 13.14L12.1266 13.2L12.1666 11.46Z" fill="white"/>
</g>
</g>
<defs>
<clipPath id="clip0_150_553">
<rect width="32" height="32" fill="white"/>
</clipPath>
<clipPath id="clip1_150_553">
<rect width="32" height="33" fill="white"/>
</clipPath>
</defs>
</svg>
