<svg width="160" height="22" viewBox="0 0 160 22" fill="none" xmlns="http://www.w3.org/2000/svg">
<path d="M108.508 21.4546C108.508 21.4214 108.63 21.2333 108.785 21.0562C109.514 20.1932 110.221 18.3232 112.895 10.1796C114.707 4.64726 115.028 3.57399 115.028 2.99862V2.71094H117.105C118.243 2.71094 119.227 2.75519 119.282 2.79945C119.348 2.84371 119.514 3.25311 119.657 3.70676C119.956 4.65833 121.127 8.04413 122.431 11.7287C122.928 13.1339 123.834 15.6788 124.431 17.4049C125.039 19.131 125.624 20.7464 125.746 21.0009C125.867 21.2443 125.967 21.4656 125.967 21.4877C125.967 21.5099 124.84 21.5209 123.47 21.5209C121.127 21.5209 120.972 21.5099 121.061 21.3328C121.215 20.9788 121.238 19.9498 121.116 19.2969C121.039 18.9429 120.807 18.1019 120.597 17.427L120.21 16.2099L117.006 16.232L113.79 16.2652L113.569 16.8738C112.95 18.5888 112.785 19.3523 112.773 20.4477L112.762 21.5209H110.641C109.47 21.5209 108.508 21.4877 108.508 21.4546ZM119.47 13.3884C119.448 13.2888 119.227 12.6581 118.961 11.9721C118.453 10.6665 117.89 8.9625 117.403 7.30279C116.983 5.88651 117.006 5.94183 116.906 6.19632C116.674 6.79381 114.508 13.5101 114.53 13.5543C114.553 13.5875 115.68 13.5986 117.039 13.5875C119.215 13.5654 119.503 13.5433 119.47 13.3884Z" fill="#3E7959"/>
<path d="M128.774 21.4546C128.674 21.4103 128.696 21.2554 128.818 20.8792C128.972 20.4255 129.006 19.3744 129.039 12.5585C129.061 6.71636 129.039 4.56981 128.939 3.98338C128.785 3.14246 128.796 2.92117 128.984 2.79945C129.061 2.75519 130.807 2.71094 132.873 2.71094C136.221 2.71094 136.729 2.73307 137.525 2.93223C138.818 3.24204 139.58 3.61824 140.287 4.28213C141.072 5.02346 141.403 5.58776 141.602 6.53933C142.232 9.51573 140.984 11.9389 138.321 12.9015L137.691 13.1339L137.978 13.6539C139.182 15.7562 139.624 16.4865 140.729 18.1573C141.414 19.2084 142.254 20.3591 142.597 20.7243C142.928 21.0894 143.204 21.4214 143.204 21.4546C143.204 21.4988 142.199 21.5099 140.972 21.4988L138.74 21.4656L137.978 20.0825C137.558 19.3191 136.95 18.2237 136.63 17.6483C136.309 17.0729 135.702 15.9775 135.293 15.2251L134.53 13.8531L133.481 13.8642L132.431 13.8752L132.464 16.7299C132.497 19.6067 132.597 20.6468 132.884 21.2111L133.05 21.5209L130.972 21.5099C129.823 21.5099 128.84 21.4767 128.774 21.4546ZM135.624 11.2197C135.967 11.1422 136.508 10.932 136.829 10.7439C138.254 9.88086 138.652 7.76751 137.624 6.45081C136.884 5.49924 135.834 5.15624 133.68 5.14517H132.376V8.24329V11.3414H133.68C134.398 11.3414 135.271 11.2861 135.624 11.2197Z" fill="#3E7959"/>
<path d="M149.061 21.4326C149.061 21.3772 149.138 21.1781 149.227 21.001C149.547 20.3482 149.624 19.4409 149.591 16.5198C149.569 14.1299 149.525 13.5545 149.381 13.2779C149.293 13.1008 148.442 11.6292 147.492 10.0138C146.553 8.39834 145.436 6.46202 145.028 5.69856C144.608 4.93509 144.055 3.98353 143.79 3.56307C143.525 3.15367 143.315 2.7996 143.315 2.76641C143.315 2.73321 144.365 2.71109 145.635 2.71109C147.89 2.71109 147.956 2.72215 147.956 2.93238C147.956 3.05409 148 3.24219 148.055 3.35284C148.122 3.45242 148.188 3.71797 148.232 3.93927C148.32 4.4925 151.304 10.4896 151.713 10.9322C151.823 11.0539 152.751 9.30565 153.978 6.70544C154.939 4.64741 155.249 3.76223 155.249 3.04303V2.65576H157.624C158.928 2.65576 160 2.66683 160 2.68895C160 2.71108 159.735 2.96557 159.414 3.26432C158.641 3.97246 157.967 4.96829 156.575 7.46891C155.945 8.59751 154.983 10.2683 154.431 11.1756C153.017 13.5102 153.05 13.4107 153.039 16.5973C153.039 18.9541 153.061 19.3524 153.271 20.0827C153.392 20.5363 153.569 21.0232 153.657 21.156C153.746 21.2887 153.812 21.4326 153.812 21.4658C153.812 21.499 152.74 21.5211 151.436 21.5211C150.133 21.5211 149.061 21.4768 149.061 21.4326Z" fill="#3E7959"/>
<path d="M35.5578 21.7865C32.044 21.012 29.8562 18.9429 28.9059 15.5017C28.707 14.8157 28.6628 14.2404 28.6186 12.3815C28.5634 10.2903 28.5855 10.0137 28.8065 9.11741C29.5357 6.22952 31.149 4.21575 33.7125 3.04289C34.1435 2.84372 34.7954 2.6003 35.16 2.51178C39.4252 1.43851 43.4031 2.63349 45.591 5.63203C46.9169 7.46877 47.4805 9.36084 47.4805 12.0606C47.4805 16.398 45.9335 19.142 42.5081 20.8681C41.4694 21.3882 40.1656 21.7533 38.8396 21.8971C37.4031 22.0631 36.6628 22.0299 35.5578 21.7865ZM39.4252 19.1642C41.3479 18.6331 42.6739 17.2168 43.3479 14.9928C43.6241 14.0744 43.6462 13.8531 43.6462 12.1159C43.6462 10.0137 43.4805 9.13954 42.8396 7.78965C42.4418 6.97086 41.3921 5.78694 40.707 5.38861C39.5247 4.7026 37.6794 4.50343 36.2871 4.91282C34.5634 5.41074 33.1711 7.04831 32.6297 9.20593C31.7457 12.7577 32.4418 16.3648 34.3313 18.0798C35.5247 19.1642 37.7457 19.6289 39.4252 19.1642Z" fill="#3E7959"/>
<path d="M2.16575 21.6095L0 21.5763L0.198897 20.9788C0.618787 19.7506 0.662986 18.622 0.596688 11.1644C0.530389 4.18258 0.486188 3.20889 0.165746 2.7995C0.0883978 2.69991 0.132599 2.64459 0.320445 2.60033C0.453041 2.56714 3.16022 2.55607 6.32044 2.56714L12.0663 2.60033L12.0994 4.18259C12.1105 5.04563 12.0884 5.75377 12.0442 5.75377C11.9889 5.75377 11.6796 5.64312 11.3481 5.51035C10.7735 5.27799 10.5525 5.25586 7.40331 5.22267L4.05525 5.18947V8.01097V10.8435H6.24309C8.46409 10.8435 10.2099 10.7108 10.5856 10.5005C10.7845 10.4009 10.7956 10.4563 10.7956 11.8394C10.7956 12.7799 10.8398 13.3552 10.9282 13.4991C11.105 13.7646 10.9613 13.9195 10.6851 13.7425C10.2873 13.4991 9.06077 13.3884 6.57458 13.3884H4.05525V16.5751C4.05525 19.6289 4.1105 20.2707 4.45304 21.4435C4.48619 21.5763 4.47514 21.6759 4.43094 21.6648C4.37569 21.6427 3.35912 21.6206 2.16575 21.6095Z" fill="#3E7959"/>
<path d="M76.5413 21.6093C76.5413 21.5429 76.6186 21.3548 76.707 21.1778C77.1048 20.37 77.149 19.4074 77.1379 11.5625C77.1269 4.0164 77.1269 3.91682 76.8948 3.264C76.7622 2.90993 76.6518 2.57799 76.6518 2.53373C76.6518 2.48947 79.3037 2.46734 82.5413 2.47841L88.4197 2.48947L88.3976 4.14918C88.3866 5.06755 88.3424 5.79782 88.2871 5.78675C88.2429 5.76462 87.9004 5.65398 87.5357 5.5212C86.8396 5.26671 84.7181 5.11181 81.9335 5.10074L80.6297 5.08968V7.44646C80.6297 8.72996 80.5965 9.90282 80.5634 10.0467L80.486 10.3012L83.5136 10.2458C85.1821 10.2237 86.7733 10.1573 87.0717 10.1241L87.602 10.0467L87.5689 11.7396C87.5357 13.189 87.5136 13.4325 87.37 13.4103C87.2816 13.3882 86.928 13.2997 86.5855 13.2112C86.1435 13.1005 85.1821 13.0452 83.2926 13.0231L80.6186 13.0009L80.5965 15.911L80.5744 18.8099H83.5357C86.2098 18.8099 86.5634 18.7878 87.2926 18.5776C88.7623 18.146 88.6739 18.1239 88.7181 18.9869C88.7512 19.4074 88.7181 20.1598 88.6628 20.6688L88.5523 21.5761H82.7954C79.6352 21.5761 76.928 21.6093 76.7954 21.6425C76.6518 21.6867 76.5413 21.6646 76.5413 21.6093Z" fill="#3E7959"/>
<path d="M92.8396 21.5874C92.8065 21.5653 92.8396 21.4547 92.8949 21.3551C93.149 20.8904 93.2153 18.2902 93.1822 11.1202C93.1601 6.98203 93.0938 3.4192 93.0385 3.20897C92.9833 2.99874 92.9612 2.73319 92.9833 2.61148C93.0275 2.41231 93.1932 2.41231 97.0717 2.46763C100.74 2.51189 101.204 2.53402 101.989 2.74425C104.829 3.51878 106.155 5.12316 106.155 7.80082C106.155 10.0691 105.138 11.6956 103.094 12.6804C102.619 12.9127 102.21 13.1119 102.188 13.134C101.967 13.2889 106.353 20.138 107.293 21.1006C107.536 21.3662 107.724 21.5875 107.69 21.5985C107.668 21.6206 106.663 21.6096 105.458 21.5764L103.271 21.5211L102.243 19.7507C101.679 18.777 100.696 17.062 100.066 15.9334L98.9059 13.8864L97.7899 13.8532L96.6628 13.82L96.6297 16.0662C96.6076 17.3054 96.6297 18.3566 96.685 18.4229C96.7292 18.4783 96.7623 18.7217 96.7623 18.9762C96.7623 19.8614 97.0385 20.99 97.3921 21.5764C97.4253 21.6428 92.8949 21.6538 92.8396 21.5874ZM99.7347 11.1756C101.348 10.8768 102.232 10.0027 102.519 8.47577C102.718 7.3693 102.276 6.25176 101.414 5.70959C100.707 5.25594 99.8231 5.08997 98.1546 5.08997H96.6518V8.18809V11.2862H97.9115C98.5966 11.2862 99.4253 11.2419 99.7347 11.1756Z" fill="#3E7959"/>
<path d="M19.8121 21.4988C16.4198 21.4656 15.5469 21.4324 15.6242 21.3217C16.0773 20.7464 16.232 17.6151 16.1767 10.0136C16.1436 4.70254 16.1215 3.86162 15.9557 3.38584C15.6795 2.54492 15.6905 2.54492 17.9778 2.54492H19.9336L19.7347 3.51862C19.5469 4.39273 19.5248 5.123 19.5248 11.7065V18.9207H21.9226C24.453 18.9207 25.4696 18.81 26.232 18.467C26.4972 18.3564 26.7513 18.2568 26.8066 18.2568C26.8508 18.2568 27.0386 18.1462 27.2044 18.0134L27.5138 17.77L27.4254 18.6551C27.348 19.6178 27.0607 21.3328 26.9723 21.4766C26.9392 21.532 26.2872 21.5652 25.5138 21.5541C24.7403 21.532 22.1767 21.5098 19.8121 21.4988Z" fill="#3E7959"/>
<path d="M59.0018 21.2723C57.697 20.9446 56.6575 20.3737 55.6815 19.4329C53.6978 17.53 52.9235 15.7222 52.0536 11.0073C51.3853 7.39183 50.7806 5.73209 49.5077 4.03006C49.1364 3.5332 48.7864 3.09976 48.7227 3.05748C48.5105 2.90947 48.903 2.76147 49.5077 2.76147C52.3294 2.77204 54.992 4.17806 57.0499 6.74696C58.1744 8.15298 59.3837 10.4364 60.2005 12.6988C60.6248 13.8616 61.3674 16.4517 61.4098 16.9168C61.4522 17.3714 61.675 17.4665 61.7599 17.0648C62.3645 14.1788 64.1467 9.87615 65.6848 7.59269C67.5306 4.8335 69.1536 3.45919 71.307 2.86719C72.389 2.56061 74.1712 2.59233 74.2985 2.93062C74.3197 3.00462 74.1075 3.39577 73.8105 3.79749C73.0998 4.77007 72.3996 6.10209 72.0602 7.14868C71.9117 7.61383 71.6146 8.98813 71.4131 10.2144C70.9782 12.7516 70.7236 13.8722 70.3311 14.9505C69.0475 18.5131 66.5653 20.7966 63.3617 21.3569C62.3645 21.5366 59.8717 21.4837 59.0018 21.2723Z" fill="#3E7959"/>
<path d="M61.1156 10.5822C60.4193 9.19486 59.2879 7.26985 58.6459 6.37725L58.1672 5.71049L58.3196 5.14052C58.6568 3.87152 59.3749 2.44121 60.1909 1.37654C60.7022 0.720533 61.4964 0 61.714 0C61.899 0 63.2698 1.46257 63.7268 2.15084C64.2816 2.97892 64.8474 4.14038 65.065 4.86091L65.2391 5.4739L64.608 6.47404C63.5962 8.08718 61.8663 11.3242 61.8663 11.6146C61.8663 11.9264 61.627 11.6038 61.1156 10.5822Z" fill="#3E7959"/>
</svg>
