<svg width="728" height="100" viewBox="0 0 728 100" fill="none" xmlns="http://www.w3.org/2000/svg">
<path d="M493.713 97.5205C493.713 97.3696 494.266 96.5146 494.97 95.7099C498.288 91.787 501.506 83.2873 513.672 46.2708C521.918 21.1237 523.376 16.2452 523.376 13.6299V12.3223H532.828C538.006 12.3223 542.481 12.5234 542.732 12.7246C543.034 12.9258 543.788 14.7867 544.441 16.8487C545.799 21.174 551.128 36.564 557.061 53.312C559.323 59.6993 563.446 71.267 566.161 79.1129C568.926 86.9587 571.591 94.3017 572.144 95.4585C572.697 96.5649 573.149 97.5708 573.149 97.6714C573.149 97.772 568.021 97.8223 561.787 97.8223C551.128 97.8223 550.424 97.772 550.827 96.9673C551.53 95.3579 551.631 90.6805 551.078 87.7132C550.726 86.1038 549.67 82.2814 548.715 79.2135L546.955 73.6811L532.375 73.7817L517.745 73.9326L516.739 76.6987C513.924 84.4943 513.17 87.9646 513.119 92.9437L513.069 97.8223H503.416C498.087 97.8223 493.713 97.6714 493.713 97.5205ZM543.587 60.8561C543.486 60.4035 542.481 57.5367 541.274 54.4185C538.961 48.4837 536.397 40.7384 534.185 33.1943C532.275 26.7567 532.375 27.0082 531.923 28.1649C530.867 30.8808 521.013 61.4093 521.113 61.6105C521.214 61.7614 526.342 61.8117 532.526 61.7614C542.43 61.6608 543.738 61.5602 543.587 60.8561Z" fill="#38CA9C"/>
<path d="M585.92 97.5205C585.467 97.3194 585.568 96.6152 586.121 94.9052C586.825 92.8432 586.976 88.0652 587.126 57.084C587.227 30.5287 587.126 20.7717 586.674 18.1061C585.97 14.2837 586.02 13.2778 586.875 12.7246C587.227 12.5234 595.171 12.3223 604.572 12.3223C619.806 12.3223 622.119 12.4229 625.738 13.3281C631.621 14.7364 635.09 16.4464 638.308 19.464C641.877 22.8337 643.385 25.3987 644.29 29.724C647.156 43.2532 641.475 54.2676 629.358 58.6431L626.493 59.6993L627.8 62.0632C633.28 71.6191 635.291 74.9384 640.319 82.5329C643.436 87.3108 647.257 92.5414 648.815 94.2011C650.324 95.8608 651.58 97.3696 651.58 97.5205C651.58 97.7217 647.005 97.772 641.425 97.7217L631.269 97.5708L627.8 91.284C625.889 87.8137 623.124 82.8346 621.666 80.2193C620.208 77.604 617.443 72.6249 615.583 69.2049L612.114 62.9685L607.337 63.0187L602.561 63.069L602.712 76.0449C602.863 89.1214 603.315 93.849 604.622 96.414L605.377 97.8223L595.925 97.772C590.696 97.772 586.221 97.6211 585.92 97.5205ZM617.091 50.9985C618.65 50.6464 621.113 49.6908 622.571 48.8358C629.057 44.9128 630.867 35.3067 626.191 29.3217C622.822 24.9964 618.046 23.4373 608.242 23.387H602.31V37.4693V51.5517H608.242C611.51 51.5517 615.482 51.3002 617.091 50.9985Z" fill="#38CA9C"/>
<path d="M678.227 97.4199C678.227 97.1685 678.578 96.2632 678.981 95.4584C680.439 92.4911 680.791 88.367 680.64 75.0893C680.539 64.2258 680.338 61.6105 679.685 60.3532C679.282 59.5485 675.411 52.8593 671.087 45.5164C666.814 38.1734 661.736 29.372 659.876 25.9017C657.965 22.4314 655.451 18.1061 654.245 16.1949C653.038 14.334 652.083 12.7246 652.083 12.5737C652.083 12.4229 656.859 12.3223 662.641 12.3223C672.897 12.3223 673.199 12.3726 673.199 13.3282C673.199 13.8814 673.4 14.7364 673.651 15.2393C673.953 15.692 674.255 16.899 674.456 17.9049C674.858 20.4196 688.433 47.679 690.293 49.6908C690.796 50.244 695.019 42.2976 700.599 30.4785C704.973 21.1237 706.381 17.1002 706.381 13.8311V12.0708H717.191C723.123 12.0708 728 12.1211 728 12.2217C728 12.3223 726.793 13.479 725.335 14.837C721.816 18.0558 718.749 22.5823 712.414 33.9487C709.549 39.0787 705.175 46.6732 702.661 50.7973C696.225 61.4093 696.376 60.9567 696.326 75.4414C696.326 86.154 696.427 87.9646 697.382 91.284C697.935 93.3461 698.739 95.559 699.141 96.1626C699.544 96.7661 699.845 97.4199 699.845 97.5708C699.845 97.7217 694.969 97.8223 689.036 97.8223C683.103 97.8223 678.227 97.6211 678.227 97.4199Z" fill="#38CA9C"/>
<path d="M161.789 99.0289C145.801 95.5083 135.846 86.1033 131.522 70.4619C130.617 67.3436 130.416 64.7283 130.215 56.2789C129.964 46.7733 130.064 45.516 131.07 41.4422C134.388 28.3154 141.728 19.1619 153.392 13.8307C155.353 12.9254 158.319 11.8189 159.979 11.4166C179.385 6.53805 197.485 11.9698 207.439 25.5995C213.473 33.9483 216.037 42.5486 216.037 54.8204C216.037 74.5357 208.998 87.0086 193.412 94.8545C188.686 97.2183 182.754 98.878 176.721 99.5319C170.185 100.286 166.816 100.135 161.789 99.0289ZM179.385 87.1092C188.133 84.6951 194.166 78.2575 197.233 68.1483C198.49 63.9739 198.591 62.968 198.591 55.0719C198.591 45.516 197.837 41.5428 194.921 35.4069C193.111 31.6851 188.334 26.3036 185.217 24.4931C179.838 21.3748 171.442 20.4695 165.107 22.3304C157.264 24.5936 150.929 32.0372 148.465 41.8445C144.443 57.9889 147.611 74.3848 156.208 82.1804C161.638 87.1092 171.743 89.2216 179.385 87.1092Z" fill="#38CA9C"/>
<path d="M9.85415 98.2244L0 98.0736L0.904982 95.3577C2.81548 89.775 3.01659 84.645 2.71493 50.7468C2.41327 19.0112 2.21215 14.5853 0.754144 12.7245C0.40221 12.2718 0.603327 12.0203 1.45802 11.8192C2.06134 11.6683 14.379 11.618 28.758 11.6683L54.9017 11.8192L55.0525 19.0112C55.1028 22.9342 55.0022 26.153 54.8011 26.153C54.5497 26.153 53.142 25.65 51.6337 25.0465C49.0193 23.9903 48.0138 23.8898 33.6851 23.7389L18.4514 23.588V36.413V49.2883H28.4061C38.5116 49.2883 46.4552 48.6847 48.1646 47.7292C49.0696 47.2765 49.1199 47.528 49.1199 53.8147C49.1199 58.0897 49.321 60.705 49.7232 61.3589C50.5276 62.5659 49.874 63.27 48.6171 62.4653C46.8072 61.3589 41.2265 60.8559 29.9144 60.8559H18.4514V75.3406C18.4514 89.2218 18.7028 92.1389 20.2613 97.47C20.4121 98.0736 20.3619 98.5262 20.1608 98.4759C19.9094 98.3753 15.284 98.2747 9.85415 98.2244Z" fill="#38CA9C"/>
<path d="M348.263 98.2243C348.263 97.9225 348.615 97.0675 349.017 96.2628C350.827 92.5913 351.028 88.2158 350.978 52.5572C350.928 18.2566 350.928 17.804 349.872 14.8366C349.269 13.2272 348.766 11.7184 348.766 11.5172C348.766 11.316 360.832 11.2155 375.563 11.2657L402.31 11.316L402.21 18.8602C402.159 23.0346 401.958 26.354 401.707 26.3037C401.506 26.2031 399.947 25.7002 398.288 25.0966C395.121 23.9399 385.468 23.2358 372.798 23.1855L366.865 23.1352V33.8478C366.865 39.6819 366.715 45.0131 366.564 45.6669L366.212 46.8237L379.987 46.5722C387.579 46.4716 394.819 46.1699 396.176 46.019L398.59 45.6669L398.439 53.3619C398.288 59.9505 398.187 61.0569 397.534 60.9563C397.132 60.8558 395.523 60.4534 393.964 60.051C391.953 59.5481 387.579 59.2966 378.982 59.196L366.815 59.0955L366.715 72.3228L366.614 85.4999H380.088C392.255 85.4999 393.864 85.3993 397.182 84.4437C403.869 82.4822 403.466 82.3816 403.668 86.3046C403.818 88.2158 403.668 91.6357 403.416 93.9493L402.913 98.0734H376.72C362.341 98.0734 350.023 98.2243 349.42 98.3752C348.766 98.5763 348.263 98.4757 348.263 98.2243Z" fill="#38CA9C"/>
<path d="M422.421 98.1237C422.27 98.0231 422.421 97.5201 422.672 97.0675C423.829 94.9551 424.13 83.136 423.979 50.5454C423.879 31.7354 423.577 15.5407 423.326 14.5851C423.075 13.6295 422.974 12.4225 423.075 11.8692C423.276 10.9639 424.03 10.9639 441.677 11.2154C458.368 11.4166 460.48 11.5172 464.05 12.4728C476.971 15.9933 483.004 23.286 483.004 35.4572C483.004 45.7675 478.378 53.1607 469.077 57.6369C466.915 58.6931 465.055 59.5984 464.955 59.6989C463.949 60.4031 483.909 91.5351 488.182 95.9107C489.288 97.1178 490.143 98.1237 489.992 98.174C489.892 98.2745 485.316 98.2242 479.836 98.0734L469.882 97.8219L465.206 89.7748C462.642 85.3489 458.167 77.5534 455.302 72.4234L450.023 63.1189L444.945 62.9681L439.816 62.8172L439.666 73.0269C439.565 78.6598 439.666 83.4378 439.917 83.7395C440.118 83.991 440.269 85.0975 440.269 86.2542C440.269 90.2778 441.526 95.4078 443.135 98.0734C443.286 98.3751 422.672 98.4254 422.421 98.1237ZM453.793 50.7969C461.134 49.4389 465.156 45.4657 466.463 38.5251C467.368 33.4957 465.357 28.416 461.435 25.9516C458.218 23.8895 454.195 23.1351 446.604 23.1351H439.766V37.2175V51.2998H445.498C448.615 51.2998 452.386 51.0986 453.793 50.7969Z" fill="#38CA9C"/>
<path d="M90.1449 97.7217C74.7101 97.5708 70.7383 97.4199 71.0902 96.917C73.1516 94.3017 73.8554 80.0685 73.6041 45.5164C73.4532 21.3752 73.3527 17.5529 72.5985 15.3902C71.3416 11.5679 71.3919 11.5679 81.7991 11.5679H90.698L89.793 15.9938C88.9383 19.967 88.8377 23.2864 88.8377 53.2114V86.0032H99.7477C111.261 86.0032 115.886 85.5002 119.355 83.9411C120.562 83.4382 121.718 82.9855 121.97 82.9855C122.171 82.9855 123.026 82.4826 123.78 81.879L125.187 80.7726L124.785 84.7961C124.433 89.1717 123.126 96.9673 122.724 97.6211C122.573 97.8726 119.607 98.0235 116.087 97.9732C112.568 97.8726 100.904 97.772 90.1449 97.7217Z" fill="#38CA9C"/>
<path d="M268.458 96.6915C262.521 95.2019 257.791 92.607 253.351 88.3304C244.325 79.6809 240.802 71.4639 236.844 50.0324C233.803 33.5984 231.052 26.0541 225.26 18.3176C223.571 16.0591 221.978 14.089 221.688 13.8968C220.723 13.224 222.509 12.5513 225.26 12.5513C238.099 12.5993 250.213 18.9904 259.577 30.6672C264.693 37.0582 270.196 47.4375 273.912 57.7208C275.843 63.0066 279.221 74.7795 279.414 76.8938C279.608 78.9601 280.621 79.3925 281.007 77.5665C283.758 64.4482 291.867 44.8907 298.866 34.5114C307.264 21.9696 314.649 15.7228 324.447 13.0318C329.37 11.6383 337.479 11.7825 338.058 13.3201C338.154 13.6565 337.189 15.4345 335.838 17.2605C332.604 21.6813 329.418 27.7359 327.874 32.4932C327.198 34.6075 325.847 40.8543 324.929 46.4284C322.951 57.9611 321.792 63.0546 320.006 67.956C314.166 84.1498 302.872 94.5291 288.295 97.0759C283.758 97.8928 272.416 97.6526 268.458 96.6915Z" fill="#38CA9C"/>
<path d="M278.076 48.1007C274.908 41.7948 269.76 33.0448 266.839 28.9875L264.661 25.9568L265.354 23.366C266.889 17.5978 270.156 11.0964 273.869 6.257C276.195 3.27515 279.809 0 280.799 0C281.641 0 287.878 6.64806 289.957 9.77656C292.482 13.5405 295.056 18.8199 296.046 22.095L296.838 24.8814L293.967 29.4275C289.363 36.7599 281.492 51.4736 281.492 52.7934C281.492 54.2111 280.403 52.7446 278.076 48.1007Z" fill="#38CA9C"/>
</svg>
