<svg width="17" height="16" viewBox="0 0 17 16" fill="none" xmlns="http://www.w3.org/2000/svg">
<rect width="16" height="16" transform="translate(0.790039)" fill="white" fill-opacity="0.01" style="mix-blend-mode:multiply"/>
<path fill-rule="evenodd" clip-rule="evenodd" d="M8.79003 0.99992C7.12817 1.00014 5.5206 1.59161 4.25488 2.66852C2.98916 3.74542 2.14786 5.23752 1.88148 6.87789C1.6151 8.51826 1.94102 10.1999 2.80092 11.622C3.66083 13.0441 4.99864 14.1138 6.57503 14.6399C6.92503 14.7049 7.07503 14.4899 7.07503 14.3049C7.07503 14.1199 7.07503 13.6999 7.07503 13.1149C5.13003 13.5349 4.72003 12.1749 4.72003 12.1749C4.58325 11.7463 4.29539 11.3821 3.91003 11.1499C3.27503 10.7199 3.96003 10.7249 3.96003 10.7249C4.18183 10.7563 4.39354 10.8379 4.57898 10.9635C4.76443 11.0892 4.9187 11.2555 5.03003 11.4499C5.2237 11.7973 5.5474 12.0535 5.92994 12.1623C6.31249 12.271 6.72258 12.2234 7.07003 12.0299C7.09826 11.6752 7.25466 11.3428 7.51003 11.0949C5.96003 10.9149 4.32503 10.3149 4.32503 7.63492C4.31369 6.93887 4.57164 6.26533 5.04503 5.75492C4.83076 5.15202 4.85581 4.48991 5.11503 3.90492C5.11503 3.90492 5.70003 3.71492 7.04003 4.61992C8.18577 4.30739 9.39429 4.30739 10.54 4.61992C11.875 3.71492 12.46 3.90492 12.46 3.90492C12.7192 4.48991 12.7443 5.15202 12.53 5.75492C13.0034 6.26533 13.2614 6.93887 13.25 7.63492C13.25 10.3249 11.615 10.9149 10.055 11.0899C10.2221 11.2593 10.351 11.4625 10.4329 11.6859C10.5149 11.9093 10.548 12.1477 10.53 12.3849C10.53 13.3199 10.53 14.0749 10.53 14.3049C10.53 14.5349 10.655 14.7099 11.03 14.6399C12.6085 14.1132 13.9477 13.0414 14.8075 11.6166C15.6672 10.1919 15.9913 8.50755 15.7217 6.86551C15.452 5.22348 14.6062 3.73121 13.336 2.6563C12.0657 1.5814 10.454 0.994171 8.79003 0.99992Z" fill="#161616"/>
</svg>
